<svg xmlns="http://www.w3.org/2000/svg" width="22" height="22" viewBox="0 0 22 22">
  <g id="_x31_" transform="translate(0)">
    <ellipse id="Ellipse_4" data-name="Ellipse 4" cx="11" cy="11" rx="11" ry="11" fill="#fff"/>
    <path id="Path_328" data-name="Path 328" d="M11.6,0a10.957,10.957,0,0,1,5.567,1.512h-7.1V.108A11.071,11.071,0,0,1,11.6,0ZM10.066,11.863h12.5c.022-.285.037-.572.037-.863s-.015-.578-.037-.863h-12.5Zm0-6.9H20.8a11.049,11.049,0,0,0-1.4-1.725H10.066Zm0,3.453H22.294a10.892,10.892,0,0,0-.571-1.73H10.066ZM11.6,22a10.956,10.956,0,0,0,5.567-1.512H6.03A10.956,10.956,0,0,0,11.6,22ZM1.47,15.314H21.723a10.9,10.9,0,0,0,.57-1.725H.9A10.918,10.918,0,0,0,1.47,15.314ZM3.8,18.762h15.6a11.049,11.049,0,0,0,1.4-1.725H2.4A11.049,11.049,0,0,0,3.8,18.762Z" transform="translate(-0.603)" fill="#c64252"/>
    <path id="Path_329" data-name="Path 329" d="M2.528,3.922A10.574,10.574,0,0,0,.945,6.409l.113.353h.484l-.391.282L1.3,7.5.912,7.216.52,7.5l.01-.032a10.52,10.52,0,0,0-.517,2.771l0,.12C.005,10.5,0,10.637,0,10.776c0,.279.014.555.035.829H9.1V.315A10.5,10.5,0,0,0,7.76.59l.119.37h.484l-.391.282.152.463-.391-.286L7.341,1.7l.152-.459L7.1.96h.484L7.7.608a10.5,10.5,0,0,0-2.343.978l-.07.04a10.607,10.607,0,0,0-1.357.931l-.151.123A10.59,10.59,0,0,0,2.6,3.835M1.3,9.825.912,9.539.52,9.821l.147-.459L.281,9.08H.76l.152-.459.147.459h.484l-.391.282Zm1.368,1.157L2.275,10.7l-.391.282.152-.463-.391-.282h.48l.152-.454.147.459h.484l-.391.282ZM2.515,8.206l.152.454-.391-.282-.392.282L2.035,8.2l-.391-.282h.48l.152-.459.147.463h.484Zm0-2.323.152.463-.391-.286-.391.282.152-.459L1.644,5.6h.48l.152-.459.147.459h.484ZM4.029,9.825l-.391-.286-.387.282L3.4,9.362,3.007,9.08H3.5l.143-.459.152.459h.48l-.387.282ZM3.882,7.044l.147.459-.391-.286L3.251,7.5,3.4,7.04l-.392-.282h.488L3.638,6.3l.152.459h.48Zm0-2.322.147.463L3.638,4.9l-.387.282L3.4,4.722,3.007,4.44H3.5l.143-.459.152.459h.48Zm1.51,6.261L5,10.7l-.387.282.147-.463-.387-.282h.48L5,9.783l.152.459h.48l-.387.282ZM5.245,8.206l.147.454L5,8.378l-.387.282L4.762,8.2l-.387-.282h.48L5,7.461l.152.463h.48Zm0-2.323.147.463L5,6.059l-.387.282.147-.459L4.375,5.6h.48L5,5.142l.152.459h.48Zm0-2.318.147.459L5,3.737l-.387.286.147-.463-.387-.282h.48L5,2.82l.152.463h.48Zm1.51,6.261-.387-.286-.391.282.147-.459L5.738,9.08h.48l.152-.459.147.459H7l-.391.282ZM6.608,7.044l.147.459-.387-.286L5.978,7.5l.147-.463-.387-.282h.48L6.369,6.3l.147.459H7Zm0-2.322.147.463L6.369,4.9l-.391.282.147-.459L5.738,4.44h.48l.152-.459.147.459H7Zm0-2.318.147.459L6.369,2.58l-.391.282L6.124,2.4l-.387-.282h.48l.152-.459.147.459H7Zm1.514,8.579L7.732,10.7l-.391.282.152-.463L7.1,10.237h.484l.147-.454.147.459h.484l-.391.282ZM7.972,8.206l.152.454-.391-.282-.391.282L7.492,8.2,7.1,7.919h.484l.147-.459.147.463h.484Zm0-2.323.152.463-.391-.286-.391.282.152-.459L7.1,5.6h.484l.147-.459L7.88,5.6h.484Zm0-2.318.152.459-.391-.286-.391.286.152-.463L7.1,3.278h.484l.147-.459.147.463h.484Z" transform="translate(0 -0.211)" fill="#2b497a"/>
  </g>
</svg>
