<svg xmlns="http://www.w3.org/2000/svg" width="16.462" height="16.4" viewBox="0 0 16.462 16.4">
  <path id="Path_322" data-name="Path 322" d="M4.154,10.636a17.03,17.03,0,0,0,5.667,4.423,8.845,8.845,0,0,0,3.172.935c.077,0,.15.007.226.007a2.631,2.631,0,0,0,2.037-.872.072.072,0,0,0,.013-.017,8.556,8.556,0,0,1,.642-.663c.156-.149.316-.305.469-.464a1.6,1.6,0,0,0-.007-2.384l-2-1.993A1.622,1.622,0,0,0,13.2,9.071a1.676,1.676,0,0,0-1.185.534l-1.191,1.187c-.11-.063-.223-.119-.329-.172a4.121,4.121,0,0,1-.366-.2A12.592,12.592,0,0,1,7.119,7.688,7.229,7.229,0,0,1,6.1,6.07c.313-.282.606-.577.889-.865.1-.1.2-.206.306-.308A1.7,1.7,0,0,0,7.848,3.7,1.683,1.683,0,0,0,7.3,2.51L6.3,1.522c-.116-.116-.226-.229-.339-.345C5.745.951,5.515.719,5.289.511A1.662,1.662,0,0,0,4.117,0,1.711,1.711,0,0,0,2.933.514L1.688,1.754A2.544,2.544,0,0,0,.926,3.385a6.115,6.115,0,0,0,.463,2.652A15.418,15.418,0,0,0,4.154,10.636ZM1.738,3.455a1.751,1.751,0,0,1,.529-1.127L3.5,1.094A.9.9,0,0,1,4.117.812a.852.852,0,0,1,.6.288c.223.206.433.421.659.65.113.116.23.232.346.351l.992.988a.9.9,0,0,1,.313.62.9.9,0,0,1-.313.62c-.1.1-.206.209-.31.312-.309.312-.6.607-.919.889l-.017.017a.646.646,0,0,0-.166.736c0,.01.007.017.01.027A7.8,7.8,0,0,0,6.48,8.2a13.29,13.29,0,0,0,3.208,2.911,4.77,4.77,0,0,0,.439.239,4.12,4.12,0,0,1,.366.2l.037.02a.7.7,0,0,0,.323.083.707.707,0,0,0,.5-.225l1.245-1.24a.882.882,0,0,1,.609-.3.837.837,0,0,1,.589.3l2.007,2a.8.8,0,0,1-.01,1.25c-.14.149-.286.292-.443.441a9.564,9.564,0,0,0-.7.719,1.83,1.83,0,0,1-1.428.6c-.057,0-.116,0-.173-.007a8.036,8.036,0,0,1-2.869-.855,16.178,16.178,0,0,1-5.395-4.211,14.758,14.758,0,0,1-2.629-4.36A5.329,5.329,0,0,1,1.738,3.455Z" transform="translate(-0.712 0.2)" fill="#292e2f" stroke="#292e2f" stroke-width="0.4"/>
</svg>
